
        <svg xmlns="http://www.w3.org/2000/svg" xmlns:xlink="http://www.w3.org/1999/xlink" version="1.1" width="3163.7028507611144" 
        height="809.651349843072" viewBox="0 0 3163.7028507611144 809.651349843072">
			<rect fill="#ffffff" width="3163.7028507611144" height="809.651349843072"/>
			<g transform="scale(8.185142538055716) translate(10, 10)">
				<defs id="SvgjsDefs1432"></defs><g id="SvgjsG1433" featureKey="symbolFeature-0" transform="matrix(1.2554627656936646,0,0,1.2554627656936646,-6.276526259571921,-23.314480519066013)" fill="#83b271"><path xmlns="http://www.w3.org/2000/svg" d="M94.97,61.181c-1.762-10.407-3.523-20.814-5.285-31.221c-1.013-5.986-6.828-11.798-12.923-11.367  c-17.413,1.091-33.263,11.414-50.436,13.925c-8.202,1.08-12.04-2.905-12.025-2.784c-0.729-0.721-1.753-1.067-2.576-0.891  c-0.824,0.178-1.273,0.856-1.123,1.745c1.737,10.264,3.475,20.529,5.212,30.793c1.013,5.986,6.828,11.797,12.923,11.367  C46.15,71.658,62,61.334,79.173,58.823c8.352-1.076,11.854,3.067,11.939,3.043c0.518,0.63,1.245,1.022,1.962,1.121  c0.227,0.031,0.453,0.032,0.67,0.001C94.647,62.859,95.129,62.123,94.97,61.181z M57.907,58.475  c-6.386,1.664-13.133-3.01-15.07-10.442c-1.937-7.431,1.67-14.805,8.056-16.469c6.386-1.664,13.133,3.01,15.07,10.442  C67.9,49.437,64.293,56.81,57.907,58.475z"></path><g xmlns="http://www.w3.org/2000/svg"><path d="M55.608,54.952l-0.432-1.66c-2.933,0.315-4.372-1.347-5.059-3.68l3.517-0.917c0.353,1.152,0.919,1.903,2.083,1.6   c0.891-0.232,1.194-0.999,0.955-1.916c-0.291-1.115-0.916-1.586-2.657-1.873c-3.357-0.501-4.894-1.423-5.584-4.073   c-0.607-2.328,0.279-4.41,2.503-5.413l-0.335-1.288l2.477-0.646l0.335,1.288c2.506-0.23,3.928,1.066,4.623,3.53l-3.393,0.884   c-0.328-1.157-0.935-1.661-1.876-1.415c-0.842,0.219-1.115,0.899-0.882,1.79c0.245,0.941,0.907,1.351,2.779,1.63   c3.27,0.47,4.84,1.622,5.504,4.172c0.639,2.452-0.004,4.551-2.52,5.656l0.439,1.684L55.608,54.952z"></path></g><path xmlns="http://www.w3.org/2000/svg" d="M88.55,64.836c-0.06-0.06-0.122-0.116-0.18-0.178c-0.005-0.005-0.011-0.01-0.016-0.014c-1.478-1.351-3.783-2.095-6.49-2.095  c-0.69,0-1.416,0.048-2.159,0.142c-7.457,1.095-14.638,3.736-22.241,6.531c-9.082,3.34-18.473,6.793-28.469,7.422  c-0.297,0.021-0.599,0.031-0.897,0.031c-3.779,0-7.569-1.639-10.673-4.615c-2.854-2.737-4.843-6.391-5.459-10.027l-1.737-10.264  L7.859,37.775c-0.564-0.28-1.177-0.386-1.708-0.273c-0.824,0.178-1.273,0.856-1.123,1.745c1.737,10.264,3.475,20.529,5.212,30.793  c1.013,5.986,6.828,11.797,12.923,11.367c17.413-1.091,33.263-11.414,50.436-13.925c8.352-1.076,11.854,3.067,11.939,3.043  c0.518,0.63,1.245,1.022,1.962,1.121c0.227,0.031,0.453,0.032,0.67,0.001c0.903-0.129,1.385-0.866,1.226-1.807  C89.114,68.172,88.832,66.504,88.55,64.836z"></path></g><g id="SvgjsG1434" featureKey="nameFeature-0" transform="matrix(1.1696864366531372,0,0,1.1696864366531372,127.70015071995078,-6.48391601610569)" fill="#111111"><path d="M18.75 15.254000000000001 l-11.406 0 l0 9.9023 l10.02 0 l0 2.4805 l-10.02 0 l0 9.8633 l11.406 0 l0 2.5 l-14.219 0 l0 -27.246 l14.219 0 l0 2.5 z M27.73044375 30.6836 l0 -2.168 l14.004 0 l0 2.168 l-14.004 0 z M68.3905625 40 l-10.273 -12.969 l-2.5195 0 l0 12.969 l-2.7148 0 l0 -27.246 l2.7148 0 l0 11.797 l2.5195 0 l9.7656 -11.797 l3.3398 0 l-10.762 12.969 l11.406 14.277 l-3.4766 0 z M89.81221875 40.37109 c-5.4688 0 -9.6484 -3.5156 -9.6484 -9.2188 l0 -18.398 l2.7148 0 l0 18.008 c0 4.6875 3.0078 7.0898 6.9336 7.0898 c3.9063 0 6.9922 -2.4219 6.9922 -7.0898 l0 -18.008 l2.6953 0 l0 18.398 c0 5.7031 -4.1992 9.2188 -9.6875 9.2188 z M113.8320375 37.5 l9.7656 0 l0 2.5 l-12.48 0 l0 -27.246 l2.7148 0 l0 24.746 z M160.4686875 40 l-2.5977 0 l-1.8164 -23.145 l-9.3359 23.145 l-1.5234 0 l-9.2773 -22.988 l-1.8359 22.988 l-2.6172 0 l2.0117 -27.246 l3.3594 0 l9.1211 22.539 l9.1211 -22.539 l3.3984 0 z M171.63676875 40 l0 -27.246 l2.7148 0 l0 27.246 l-2.7148 0 z M194.738375 40.37109 c-5.6055 0 -9.5117 -2.6758 -10.488 -6.9922 l2.7148 -0.66406 c0.74219 3.2617 3.8281 5.2148 7.8516 5.2148 c3.2813 0 6.6797 -1.2891 6.6016 -5.1563 c-0.058594 -3.6719 -3.8867 -4.6094 -7.832 -5.625 c-4.3555 -1.1133 -8.5742 -2.3438 -8.5742 -7.3633 c0 -5.0391 4.2188 -7.4023 8.8477 -7.4023 c4.8047 0 8.8086 2.0703 9.8047 6.4258 l-2.6367 0.68359 c-0.78125 -3.2031 -3.75 -4.668 -7.1094 -4.668 c-2.9883 0 -6.1719 1.3477 -6.1719 4.9805 c0 3.2813 3.2422 4.1992 6.9141 5.1172 c4.4922 1.1133 9.5117 2.3047 9.5117 7.8125 c0 5.3711 -4.4531 7.6367 -9.4336 7.6367 z"></path></g><g id="SvgjsG1435" featureKey="sloganFeature-0" transform="matrix(0.6917005181312561,0,0,0.6917005181312561,132.6959286249395,56.93355356245348)" fill="#111111"><path d="M11.133 20 l-1.1035 -3.0957 l-6.084 0 l-1.0938 3.0957 l-2.4121 0 l5.127 -13.926 l2.8418 0 l5.127 13.926 l-2.4023 0 z M4.6582 14.9023 l4.668 0 l-2.334 -6.582 z M23.03176640625 17.9102 l4.5996 0 l0 2.0898 l-6.9336 0 l0 -13.926 l2.334 0 l0 11.836 z M37.2060203125 20 l-3.8086 -13.926 l2.4316 0 l3.0078 11.006 l3.291 -11.006 l2.0117 0 l3.2813 11.006 l3.0273 -11.006 l2.4219 0 l-3.8086 13.926 l-2.9102 0 l-3.0176 -9.6484 l-3.0176 9.6484 l-2.9102 0 z M69.28094921875 20 l-1.1035 -3.0957 l-6.084 0 l-1.0938 3.0957 l-2.4121 0 l5.127 -13.926 l2.8418 0 l5.127 13.926 l-2.4023 0 z M62.80614921875 14.9023 l4.668 0 l-2.334 -6.582 z M88.679515625 6.074 l-4.5801 7.2754 l0 6.6504 l-2.3438 0 l0 -6.6211 l-4.5996 -7.3047 l2.6172 0 l3.1445 5.2051 l3.1543 -5.2051 l2.6074 0 z M100.16841328125 20.18555 c-2.9492 0 -5.1563 -1.4063 -5.6055 -3.8672 l2.4023 -0.55664 c0.25391 1.6016 1.5723 2.4805 3.291 2.4805 c1.3574 0 2.5879 -0.57617 2.5684 -2.041 c-0.019531 -1.5234 -1.709 -1.9629 -3.5352 -2.4805 c-2.1094 -0.61523 -4.2773 -1.3184 -4.2773 -3.877 c0 -2.5977 2.1289 -3.9648 4.7754 -3.9648 c2.4414 0 4.7559 1.0254 5.293 3.5254 l-2.2559 0.56641 c-0.3125 -1.4844 -1.4648 -2.1387 -2.9199 -2.1387 c-1.2988 0 -2.5293 0.55664 -2.5293 1.9727 c0 1.2891 1.4746 1.6895 3.1641 2.1582 c2.1777 0.60547 4.6973 1.3477 4.6973 4.1406 c0 2.8809 -2.4121 4.082 -5.0684 4.082 z M130.55807109375 6.074 l0 2.0801 l-3.4375 0 l0 11.846 l-2.3242 0 l0 -11.846 l-3.4473 0 l0 -2.0801 l9.209 0 z M146.549046875 6.074 l2.3438 0 l0 13.926 l-2.3438 0 l0 -5.9473 l-6.4648 0 l0 5.9473 l-2.3438 0 l0 -13.926 l2.3438 0 l0 5.918 l6.4648 0 l0 -5.918 z M165.36179140625 8.154 l-5.4102 0 l0 3.8574 l4.7852 0 l0 2.0605 l-4.7852 0 l0 3.8379 l5.4102 0 l0 2.0898 l-7.7734 0 l0 -13.926 l7.7734 0 l0 2.0801 z M191.06391796875 8.154 l-5.5176 0 l0 3.8477 l4.7852 0 l0 2.0703 l-4.7852 0 l0 5.9277 l-2.3633 0 l0 -13.926 l7.8809 0 l0 2.0801 z M207.6408125 20 l-1.1035 -3.0957 l-6.084 0 l-1.0938 3.0957 l-2.4121 0 l5.127 -13.926 l2.8418 0 l5.127 13.926 l-2.4023 0 z M201.1660125 14.9023 l4.668 0 l-2.334 -6.582 z M224.89107890625 6.074 l0 2.0801 l-3.4375 0 l0 11.846 l-2.3242 0 l0 -11.846 l-3.4473 0 l0 -2.0801 l9.209 0 z M239.8466546875 8.154 l-5.4102 0 l0 3.8574 l4.7852 0 l0 2.0605 l-4.7852 0 l0 3.8379 l5.4102 0 l0 2.0898 l-7.7734 0 l0 -13.926 l7.7734 0 l0 2.0801 z M252.22407734375 20.18555 c-2.9492 0 -5.1563 -1.4063 -5.6055 -3.8672 l2.4023 -0.55664 c0.25391 1.6016 1.5723 2.4805 3.291 2.4805 c1.3574 0 2.5879 -0.57617 2.5684 -2.041 c-0.019531 -1.5234 -1.709 -1.9629 -3.5352 -2.4805 c-2.1094 -0.61523 -4.2773 -1.3184 -4.2773 -3.877 c0 -2.5977 2.1289 -3.9648 4.7754 -3.9648 c2.4414 0 4.7559 1.0254 5.293 3.5254 l-2.2559 0.56641 c-0.3125 -1.4844 -1.4648 -2.1387 -2.9199 -2.1387 c-1.2988 0 -2.5293 0.55664 -2.5293 1.9727 c0 1.2891 1.4746 1.6895 3.1641 2.1582 c2.1777 0.60547 4.6973 1.3477 4.6973 4.1406 c0 2.8809 -2.4121 4.082 -5.0684 4.082 z M272.69723125 6.074 l0 2.0801 l-3.4375 0 l0 11.846 l-2.3242 0 l0 -11.846 l-3.4473 0 l0 -2.0801 l9.209 0 z"></path></g>
			</g>
		</svg>
	